<mxfile host="app.diagrams.net" modified="2024-04-11T22:28:22.923Z" agent="Mozilla/5.0 (Macintosh; Intel Mac OS X 10_15_7) AppleWebKit/537.36 (KHTML, like Gecko) Chrome/123.0.0.0 Safari/537.36" etag="JB6mA__abRU0j8ZMkxQQ" version="24.2.3" type="device" pages="2">
  <diagram name="conceptual" id="Y9b_Xrc-u3YV81TaWesR">
    <mxGraphModel dx="954" dy="606" grid="1" gridSize="10" guides="1" tooltips="1" connect="1" arrows="1" fold="1" page="1" pageScale="1" pageWidth="850" pageHeight="1100" math="0" shadow="0">
      <root>
        <mxCell id="0" />
        <mxCell id="1" parent="0" />
        <mxCell id="QFr4cBrR5Oj8t2-kIAgJ-11" style="edgeStyle=orthogonalEdgeStyle;rounded=0;orthogonalLoop=1;jettySize=auto;html=1;entryX=0.5;entryY=1;entryDx=0;entryDy=0;endArrow=none;endFill=0;" parent="1" source="QFr4cBrR5Oj8t2-kIAgJ-1" target="QFr4cBrR5Oj8t2-kIAgJ-6" edge="1">
          <mxGeometry relative="1" as="geometry" />
        </mxCell>
        <mxCell id="QFr4cBrR5Oj8t2-kIAgJ-12" style="edgeStyle=orthogonalEdgeStyle;rounded=0;orthogonalLoop=1;jettySize=auto;html=1;entryX=0;entryY=0.5;entryDx=0;entryDy=0;endArrow=none;endFill=0;" parent="1" source="QFr4cBrR5Oj8t2-kIAgJ-1" target="QFr4cBrR5Oj8t2-kIAgJ-5" edge="1">
          <mxGeometry relative="1" as="geometry" />
        </mxCell>
        <mxCell id="QFr4cBrR5Oj8t2-kIAgJ-13" style="edgeStyle=orthogonalEdgeStyle;rounded=0;orthogonalLoop=1;jettySize=auto;html=1;entryX=0;entryY=0.5;entryDx=0;entryDy=0;endArrow=none;endFill=0;" parent="1" edge="1">
          <mxGeometry relative="1" as="geometry">
            <mxPoint x="370" y="320" as="sourcePoint" />
            <mxPoint x="410" y="490" as="targetPoint" />
            <Array as="points">
              <mxPoint x="370" y="490" />
            </Array>
          </mxGeometry>
        </mxCell>
        <mxCell id="QFr4cBrR5Oj8t2-kIAgJ-15" style="edgeStyle=orthogonalEdgeStyle;rounded=0;orthogonalLoop=1;jettySize=auto;html=1;exitX=0.25;exitY=1;exitDx=0;exitDy=0;entryX=1;entryY=0.5;entryDx=0;entryDy=0;endArrow=none;endFill=0;" parent="1" source="QFr4cBrR5Oj8t2-kIAgJ-1" target="QFr4cBrR5Oj8t2-kIAgJ-4" edge="1">
          <mxGeometry relative="1" as="geometry" />
        </mxCell>
        <mxCell id="QFr4cBrR5Oj8t2-kIAgJ-1" value="fact_sales" style="rounded=0;whiteSpace=wrap;html=1;" parent="1" vertex="1">
          <mxGeometry x="280" y="260" width="120" height="60" as="geometry" />
        </mxCell>
        <mxCell id="QFr4cBrR5Oj8t2-kIAgJ-21" style="edgeStyle=orthogonalEdgeStyle;rounded=0;orthogonalLoop=1;jettySize=auto;html=1;exitX=1;exitY=0.5;exitDx=0;exitDy=0;entryX=0;entryY=0.5;entryDx=0;entryDy=0;endArrow=none;endFill=0;" parent="1" source="QFr4cBrR5Oj8t2-kIAgJ-2" target="QFr4cBrR5Oj8t2-kIAgJ-17" edge="1">
          <mxGeometry relative="1" as="geometry" />
        </mxCell>
        <mxCell id="QFr4cBrR5Oj8t2-kIAgJ-2" value="fact_inventories" style="rounded=0;whiteSpace=wrap;html=1;" parent="1" vertex="1">
          <mxGeometry x="960" y="260" width="120" height="60" as="geometry" />
        </mxCell>
        <mxCell id="QFr4cBrR5Oj8t2-kIAgJ-3" value="dim_suppliers" style="rounded=0;whiteSpace=wrap;html=1;" parent="1" vertex="1">
          <mxGeometry x="410" y="460" width="120" height="60" as="geometry" />
        </mxCell>
        <mxCell id="QFr4cBrR5Oj8t2-kIAgJ-4" value="dim_customers" style="rounded=0;whiteSpace=wrap;html=1;" parent="1" vertex="1">
          <mxGeometry x="150" y="460" width="120" height="60" as="geometry" />
        </mxCell>
        <mxCell id="QFr4cBrR5Oj8t2-kIAgJ-5" value="dim_date&lt;span style=&quot;color: rgba(0, 0, 0, 0); font-family: monospace; font-size: 0px; text-align: start; text-wrap: nowrap;&quot;&gt;%3CmxGraphModel%3E%3Croot%3E%3CmxCell%20id%3D%220%22%2F%3E%3CmxCell%20id%3D%221%22%20parent%3D%220%22%2F%3E%3CmxCell%20id%3D%222%22%20value%3D%22fact_sales%22%20style%3D%22rounded%3D0%3BwhiteSpace%3Dwrap%3Bhtml%3D1%3B%22%20vertex%3D%221%22%20parent%3D%221%22%3E%3CmxGeometry%20x%3D%22310%22%20y%3D%22260%22%20width%3D%22120%22%20height%3D%2260%22%20as%3D%22geometry%22%2F%3E%3C%2FmxCell%3E%3C%2Froot%3E%3C%2FmxGraphModel%3E&lt;/span&gt;" style="rounded=0;whiteSpace=wrap;html=1;" parent="1" vertex="1">
          <mxGeometry x="490" y="260" width="120" height="60" as="geometry" />
        </mxCell>
        <mxCell id="QFr4cBrR5Oj8t2-kIAgJ-6" value="dim_product" style="rounded=0;whiteSpace=wrap;html=1;" parent="1" vertex="1">
          <mxGeometry x="280" y="80" width="120" height="60" as="geometry" />
        </mxCell>
        <mxCell id="QFr4cBrR5Oj8t2-kIAgJ-8" value="" style="edgeStyle=orthogonalEdgeStyle;rounded=0;orthogonalLoop=1;jettySize=auto;html=1;endArrow=none;endFill=0;" parent="1" source="QFr4cBrR5Oj8t2-kIAgJ-7" target="QFr4cBrR5Oj8t2-kIAgJ-1" edge="1">
          <mxGeometry relative="1" as="geometry" />
        </mxCell>
        <mxCell id="QFr4cBrR5Oj8t2-kIAgJ-7" value="dim_employee" style="rounded=0;whiteSpace=wrap;html=1;" parent="1" vertex="1">
          <mxGeometry x="90" y="260" width="120" height="60" as="geometry" />
        </mxCell>
        <mxCell id="QFr4cBrR5Oj8t2-kIAgJ-20" style="edgeStyle=orthogonalEdgeStyle;rounded=0;orthogonalLoop=1;jettySize=auto;html=1;entryX=0;entryY=0.5;entryDx=0;entryDy=0;endArrow=none;endFill=0;" parent="1" source="QFr4cBrR5Oj8t2-kIAgJ-16" target="QFr4cBrR5Oj8t2-kIAgJ-2" edge="1">
          <mxGeometry relative="1" as="geometry" />
        </mxCell>
        <mxCell id="QFr4cBrR5Oj8t2-kIAgJ-16" value="dim_suppliers" style="rounded=0;whiteSpace=wrap;html=1;" parent="1" vertex="1">
          <mxGeometry x="770" y="260" width="120" height="60" as="geometry" />
        </mxCell>
        <mxCell id="QFr4cBrR5Oj8t2-kIAgJ-17" value="dim_date&lt;span style=&quot;color: rgba(0, 0, 0, 0); font-family: monospace; font-size: 0px; text-align: start; text-wrap: nowrap;&quot;&gt;%3CmxGraphModel%3E%3Croot%3E%3CmxCell%20id%3D%220%22%2F%3E%3CmxCell%20id%3D%221%22%20parent%3D%220%22%2F%3E%3CmxCell%20id%3D%222%22%20value%3D%22fact_sales%22%20style%3D%22rounded%3D0%3BwhiteSpace%3Dwrap%3Bhtml%3D1%3B%22%20vertex%3D%221%22%20parent%3D%221%22%3E%3CmxGeometry%20x%3D%22310%22%20y%3D%22260%22%20width%3D%22120%22%20height%3D%2260%22%20as%3D%22geometry%22%2F%3E%3C%2FmxCell%3E%3C%2Froot%3E%3C%2FmxGraphModel%3E&lt;/span&gt;" style="rounded=0;whiteSpace=wrap;html=1;" parent="1" vertex="1">
          <mxGeometry x="1150" y="260" width="120" height="60" as="geometry" />
        </mxCell>
        <mxCell id="QFr4cBrR5Oj8t2-kIAgJ-19" style="edgeStyle=orthogonalEdgeStyle;rounded=0;orthogonalLoop=1;jettySize=auto;html=1;entryX=0.5;entryY=0;entryDx=0;entryDy=0;endArrow=none;endFill=0;" parent="1" source="QFr4cBrR5Oj8t2-kIAgJ-18" target="QFr4cBrR5Oj8t2-kIAgJ-2" edge="1">
          <mxGeometry relative="1" as="geometry" />
        </mxCell>
        <mxCell id="QFr4cBrR5Oj8t2-kIAgJ-18" value="dim_product" style="rounded=0;whiteSpace=wrap;html=1;" parent="1" vertex="1">
          <mxGeometry x="960" y="100" width="120" height="60" as="geometry" />
        </mxCell>
        <mxCell id="QFr4cBrR5Oj8t2-kIAgJ-23" style="edgeStyle=orthogonalEdgeStyle;rounded=0;orthogonalLoop=1;jettySize=auto;html=1;entryX=0.5;entryY=1;entryDx=0;entryDy=0;endArrow=none;endFill=0;" parent="1" source="QFr4cBrR5Oj8t2-kIAgJ-27" target="QFr4cBrR5Oj8t2-kIAgJ-31" edge="1">
          <mxGeometry relative="1" as="geometry" />
        </mxCell>
        <mxCell id="QFr4cBrR5Oj8t2-kIAgJ-24" style="edgeStyle=orthogonalEdgeStyle;rounded=0;orthogonalLoop=1;jettySize=auto;html=1;entryX=0;entryY=0.5;entryDx=0;entryDy=0;endArrow=none;endFill=0;" parent="1" source="QFr4cBrR5Oj8t2-kIAgJ-27" target="QFr4cBrR5Oj8t2-kIAgJ-30" edge="1">
          <mxGeometry relative="1" as="geometry" />
        </mxCell>
        <mxCell id="QFr4cBrR5Oj8t2-kIAgJ-25" style="edgeStyle=orthogonalEdgeStyle;rounded=0;orthogonalLoop=1;jettySize=auto;html=1;entryX=0;entryY=0.5;entryDx=0;entryDy=0;endArrow=none;endFill=0;" parent="1" edge="1">
          <mxGeometry relative="1" as="geometry">
            <mxPoint x="1050" y="670" as="sourcePoint" />
            <mxPoint x="1090" y="840" as="targetPoint" />
            <Array as="points">
              <mxPoint x="1050" y="840" />
            </Array>
          </mxGeometry>
        </mxCell>
        <mxCell id="QFr4cBrR5Oj8t2-kIAgJ-26" style="edgeStyle=orthogonalEdgeStyle;rounded=0;orthogonalLoop=1;jettySize=auto;html=1;exitX=0.25;exitY=1;exitDx=0;exitDy=0;entryX=1;entryY=0.5;entryDx=0;entryDy=0;endArrow=none;endFill=0;" parent="1" source="QFr4cBrR5Oj8t2-kIAgJ-27" target="QFr4cBrR5Oj8t2-kIAgJ-29" edge="1">
          <mxGeometry relative="1" as="geometry" />
        </mxCell>
        <mxCell id="QFr4cBrR5Oj8t2-kIAgJ-27" value="fact_purchase_order" style="rounded=0;whiteSpace=wrap;html=1;" parent="1" vertex="1">
          <mxGeometry x="960" y="610" width="120" height="60" as="geometry" />
        </mxCell>
        <mxCell id="QFr4cBrR5Oj8t2-kIAgJ-28" value="dim_suppliers" style="rounded=0;whiteSpace=wrap;html=1;" parent="1" vertex="1">
          <mxGeometry x="1090" y="810" width="120" height="60" as="geometry" />
        </mxCell>
        <mxCell id="QFr4cBrR5Oj8t2-kIAgJ-29" value="dim_customers" style="rounded=0;whiteSpace=wrap;html=1;" parent="1" vertex="1">
          <mxGeometry x="830" y="810" width="120" height="60" as="geometry" />
        </mxCell>
        <mxCell id="QFr4cBrR5Oj8t2-kIAgJ-30" value="dim_date&lt;span style=&quot;color: rgba(0, 0, 0, 0); font-family: monospace; font-size: 0px; text-align: start; text-wrap: nowrap;&quot;&gt;%3CmxGraphModel%3E%3Croot%3E%3CmxCell%20id%3D%220%22%2F%3E%3CmxCell%20id%3D%221%22%20parent%3D%220%22%2F%3E%3CmxCell%20id%3D%222%22%20value%3D%22fact_sales%22%20style%3D%22rounded%3D0%3BwhiteSpace%3Dwrap%3Bhtml%3D1%3B%22%20vertex%3D%221%22%20parent%3D%221%22%3E%3CmxGeometry%20x%3D%22310%22%20y%3D%22260%22%20width%3D%22120%22%20height%3D%2260%22%20as%3D%22geometry%22%2F%3E%3C%2FmxCell%3E%3C%2Froot%3E%3C%2FmxGraphModel%3E&lt;/span&gt;" style="rounded=0;whiteSpace=wrap;html=1;" parent="1" vertex="1">
          <mxGeometry x="1170" y="610" width="120" height="60" as="geometry" />
        </mxCell>
        <mxCell id="QFr4cBrR5Oj8t2-kIAgJ-31" value="dim_product" style="rounded=0;whiteSpace=wrap;html=1;" parent="1" vertex="1">
          <mxGeometry x="960" y="430" width="120" height="60" as="geometry" />
        </mxCell>
        <mxCell id="QFr4cBrR5Oj8t2-kIAgJ-32" value="" style="edgeStyle=orthogonalEdgeStyle;rounded=0;orthogonalLoop=1;jettySize=auto;html=1;endArrow=none;endFill=0;" parent="1" source="QFr4cBrR5Oj8t2-kIAgJ-33" target="QFr4cBrR5Oj8t2-kIAgJ-27" edge="1">
          <mxGeometry relative="1" as="geometry" />
        </mxCell>
        <mxCell id="QFr4cBrR5Oj8t2-kIAgJ-33" value="dim_employee" style="rounded=0;whiteSpace=wrap;html=1;" parent="1" vertex="1">
          <mxGeometry x="770" y="610" width="120" height="60" as="geometry" />
        </mxCell>
      </root>
    </mxGraphModel>
  </diagram>
  <diagram id="vmsMdoVCYCwoPNkSGs7J" name="logical">
    <mxGraphModel dx="1193" dy="758" grid="1" gridSize="10" guides="1" tooltips="1" connect="1" arrows="1" fold="1" page="1" pageScale="1" pageWidth="850" pageHeight="1100" math="0" shadow="0">
      <root>
        <mxCell id="0" />
        <mxCell id="1" parent="0" />
        <mxCell id="KA3OXA4Kxq73WOVP8Ke_-14" value="fact_sales" style="swimlane;fontStyle=0;childLayout=stackLayout;horizontal=1;startSize=26;horizontalStack=0;resizeParent=1;resizeParentMax=0;resizeLast=0;collapsible=1;marginBottom=0;align=center;fontSize=14;swimlaneFillColor=default;" parent="1" vertex="1">
          <mxGeometry x="345" y="260" width="160" height="524" as="geometry" />
        </mxCell>
        <mxCell id="KA3OXA4Kxq73WOVP8Ke_-15" value="order_id" style="text;strokeColor=none;fillColor=none;spacingLeft=4;spacingRight=4;overflow=hidden;rotatable=0;points=[[0,0.5],[1,0.5]];portConstraint=eastwest;fontSize=12;whiteSpace=wrap;html=1;" parent="KA3OXA4Kxq73WOVP8Ke_-14" vertex="1">
          <mxGeometry y="26" width="160" height="30" as="geometry" />
        </mxCell>
        <mxCell id="KA3OXA4Kxq73WOVP8Ke_-16" value="product_id" style="text;strokeColor=none;fillColor=none;spacingLeft=4;spacingRight=4;overflow=hidden;rotatable=0;points=[[0,0.5],[1,0.5]];portConstraint=eastwest;fontSize=12;whiteSpace=wrap;html=1;" parent="KA3OXA4Kxq73WOVP8Ke_-14" vertex="1">
          <mxGeometry y="56" width="160" height="30" as="geometry" />
        </mxCell>
        <mxCell id="KA3OXA4Kxq73WOVP8Ke_-17" value="customer_id" style="text;strokeColor=none;fillColor=none;spacingLeft=4;spacingRight=4;overflow=hidden;rotatable=0;points=[[0,0.5],[1,0.5]];portConstraint=eastwest;fontSize=12;whiteSpace=wrap;html=1;" parent="KA3OXA4Kxq73WOVP8Ke_-14" vertex="1">
          <mxGeometry y="86" width="160" height="30" as="geometry" />
        </mxCell>
        <mxCell id="9gAK7bSFTGWXaGKxGBkw-1" value="employee_id" style="text;strokeColor=none;fillColor=none;spacingLeft=4;spacingRight=4;overflow=hidden;rotatable=0;points=[[0,0.5],[1,0.5]];portConstraint=eastwest;fontSize=12;whiteSpace=wrap;html=1;" vertex="1" parent="KA3OXA4Kxq73WOVP8Ke_-14">
          <mxGeometry y="116" width="160" height="34" as="geometry" />
        </mxCell>
        <mxCell id="9gAK7bSFTGWXaGKxGBkw-2" value="shipper_id" style="text;strokeColor=none;fillColor=none;spacingLeft=4;spacingRight=4;overflow=hidden;rotatable=0;points=[[0,0.5],[1,0.5]];portConstraint=eastwest;fontSize=12;whiteSpace=wrap;html=1;" vertex="1" parent="KA3OXA4Kxq73WOVP8Ke_-14">
          <mxGeometry y="150" width="160" height="34" as="geometry" />
        </mxCell>
        <mxCell id="9gAK7bSFTGWXaGKxGBkw-3" value="quantity" style="text;strokeColor=none;fillColor=none;spacingLeft=4;spacingRight=4;overflow=hidden;rotatable=0;points=[[0,0.5],[1,0.5]];portConstraint=eastwest;fontSize=12;whiteSpace=wrap;html=1;" vertex="1" parent="KA3OXA4Kxq73WOVP8Ke_-14">
          <mxGeometry y="184" width="160" height="34" as="geometry" />
        </mxCell>
        <mxCell id="9gAK7bSFTGWXaGKxGBkw-4" value="unit_price" style="text;strokeColor=none;fillColor=none;spacingLeft=4;spacingRight=4;overflow=hidden;rotatable=0;points=[[0,0.5],[1,0.5]];portConstraint=eastwest;fontSize=12;whiteSpace=wrap;html=1;" vertex="1" parent="KA3OXA4Kxq73WOVP8Ke_-14">
          <mxGeometry y="218" width="160" height="34" as="geometry" />
        </mxCell>
        <mxCell id="9gAK7bSFTGWXaGKxGBkw-5" value="discount" style="text;strokeColor=none;fillColor=none;spacingLeft=4;spacingRight=4;overflow=hidden;rotatable=0;points=[[0,0.5],[1,0.5]];portConstraint=eastwest;fontSize=12;whiteSpace=wrap;html=1;" vertex="1" parent="KA3OXA4Kxq73WOVP8Ke_-14">
          <mxGeometry y="252" width="160" height="34" as="geometry" />
        </mxCell>
        <mxCell id="9gAK7bSFTGWXaGKxGBkw-6" value="status_id" style="text;strokeColor=none;fillColor=none;spacingLeft=4;spacingRight=4;overflow=hidden;rotatable=0;points=[[0,0.5],[1,0.5]];portConstraint=eastwest;fontSize=12;whiteSpace=wrap;html=1;" vertex="1" parent="KA3OXA4Kxq73WOVP8Ke_-14">
          <mxGeometry y="286" width="160" height="34" as="geometry" />
        </mxCell>
        <mxCell id="9gAK7bSFTGWXaGKxGBkw-7" value="date_allocated" style="text;strokeColor=none;fillColor=none;spacingLeft=4;spacingRight=4;overflow=hidden;rotatable=0;points=[[0,0.5],[1,0.5]];portConstraint=eastwest;fontSize=12;whiteSpace=wrap;html=1;" vertex="1" parent="KA3OXA4Kxq73WOVP8Ke_-14">
          <mxGeometry y="320" width="160" height="34" as="geometry" />
        </mxCell>
        <mxCell id="9gAK7bSFTGWXaGKxGBkw-8" value="purchase_order_id" style="text;strokeColor=none;fillColor=none;spacingLeft=4;spacingRight=4;overflow=hidden;rotatable=0;points=[[0,0.5],[1,0.5]];portConstraint=eastwest;fontSize=12;whiteSpace=wrap;html=1;" vertex="1" parent="KA3OXA4Kxq73WOVP8Ke_-14">
          <mxGeometry y="354" width="160" height="34" as="geometry" />
        </mxCell>
        <mxCell id="9gAK7bSFTGWXaGKxGBkw-9" value="inventory_id" style="text;strokeColor=none;fillColor=none;spacingLeft=4;spacingRight=4;overflow=hidden;rotatable=0;points=[[0,0.5],[1,0.5]];portConstraint=eastwest;fontSize=12;whiteSpace=wrap;html=1;" vertex="1" parent="KA3OXA4Kxq73WOVP8Ke_-14">
          <mxGeometry y="388" width="160" height="34" as="geometry" />
        </mxCell>
        <mxCell id="9gAK7bSFTGWXaGKxGBkw-10" value="order_date" style="text;strokeColor=none;fillColor=none;spacingLeft=4;spacingRight=4;overflow=hidden;rotatable=0;points=[[0,0.5],[1,0.5]];portConstraint=eastwest;fontSize=12;whiteSpace=wrap;html=1;" vertex="1" parent="KA3OXA4Kxq73WOVP8Ke_-14">
          <mxGeometry y="422" width="160" height="34" as="geometry" />
        </mxCell>
        <mxCell id="9gAK7bSFTGWXaGKxGBkw-11" value="shipped_date" style="text;strokeColor=none;fillColor=none;spacingLeft=4;spacingRight=4;overflow=hidden;rotatable=0;points=[[0,0.5],[1,0.5]];portConstraint=eastwest;fontSize=12;whiteSpace=wrap;html=1;" vertex="1" parent="KA3OXA4Kxq73WOVP8Ke_-14">
          <mxGeometry y="456" width="160" height="34" as="geometry" />
        </mxCell>
        <mxCell id="9gAK7bSFTGWXaGKxGBkw-12" value="paid_date" style="text;strokeColor=none;fillColor=none;spacingLeft=4;spacingRight=4;overflow=hidden;rotatable=0;points=[[0,0.5],[1,0.5]];portConstraint=eastwest;fontSize=12;whiteSpace=wrap;html=1;" vertex="1" parent="KA3OXA4Kxq73WOVP8Ke_-14">
          <mxGeometry y="490" width="160" height="34" as="geometry" />
        </mxCell>
        <mxCell id="9gAK7bSFTGWXaGKxGBkw-13" value="dim_customer" style="swimlane;fontStyle=0;childLayout=stackLayout;horizontal=1;startSize=26;horizontalStack=0;resizeParent=1;resizeParentMax=0;resizeLast=0;collapsible=1;marginBottom=0;align=center;fontSize=14;swimlaneFillColor=#f3f1f1;fillColor=#dde0e4;strokeColor=#6c8ebf;" vertex="1" parent="1">
          <mxGeometry x="40" y="10" width="160" height="626" as="geometry" />
        </mxCell>
        <mxCell id="9gAK7bSFTGWXaGKxGBkw-14" value="customer_id" style="text;strokeColor=none;fillColor=none;spacingLeft=4;spacingRight=4;overflow=hidden;rotatable=0;points=[[0,0.5],[1,0.5]];portConstraint=eastwest;fontSize=12;whiteSpace=wrap;html=1;" vertex="1" parent="9gAK7bSFTGWXaGKxGBkw-13">
          <mxGeometry y="26" width="160" height="30" as="geometry" />
        </mxCell>
        <mxCell id="9gAK7bSFTGWXaGKxGBkw-15" value="company" style="text;strokeColor=none;fillColor=none;spacingLeft=4;spacingRight=4;overflow=hidden;rotatable=0;points=[[0,0.5],[1,0.5]];portConstraint=eastwest;fontSize=12;whiteSpace=wrap;html=1;" vertex="1" parent="9gAK7bSFTGWXaGKxGBkw-13">
          <mxGeometry y="56" width="160" height="30" as="geometry" />
        </mxCell>
        <mxCell id="9gAK7bSFTGWXaGKxGBkw-16" value="last_name" style="text;strokeColor=none;fillColor=none;spacingLeft=4;spacingRight=4;overflow=hidden;rotatable=0;points=[[0,0.5],[1,0.5]];portConstraint=eastwest;fontSize=12;whiteSpace=wrap;html=1;" vertex="1" parent="9gAK7bSFTGWXaGKxGBkw-13">
          <mxGeometry y="86" width="160" height="30" as="geometry" />
        </mxCell>
        <mxCell id="9gAK7bSFTGWXaGKxGBkw-17" value="first_name" style="text;strokeColor=none;fillColor=none;spacingLeft=4;spacingRight=4;overflow=hidden;rotatable=0;points=[[0,0.5],[1,0.5]];portConstraint=eastwest;fontSize=12;whiteSpace=wrap;html=1;" vertex="1" parent="9gAK7bSFTGWXaGKxGBkw-13">
          <mxGeometry y="116" width="160" height="34" as="geometry" />
        </mxCell>
        <mxCell id="9gAK7bSFTGWXaGKxGBkw-18" value="email_address" style="text;strokeColor=none;fillColor=none;spacingLeft=4;spacingRight=4;overflow=hidden;rotatable=0;points=[[0,0.5],[1,0.5]];portConstraint=eastwest;fontSize=12;whiteSpace=wrap;html=1;" vertex="1" parent="9gAK7bSFTGWXaGKxGBkw-13">
          <mxGeometry y="150" width="160" height="34" as="geometry" />
        </mxCell>
        <mxCell id="9gAK7bSFTGWXaGKxGBkw-19" value="job_title" style="text;strokeColor=none;fillColor=none;spacingLeft=4;spacingRight=4;overflow=hidden;rotatable=0;points=[[0,0.5],[1,0.5]];portConstraint=eastwest;fontSize=12;whiteSpace=wrap;html=1;" vertex="1" parent="9gAK7bSFTGWXaGKxGBkw-13">
          <mxGeometry y="184" width="160" height="34" as="geometry" />
        </mxCell>
        <mxCell id="9gAK7bSFTGWXaGKxGBkw-20" value="business_phone" style="text;strokeColor=none;fillColor=none;spacingLeft=4;spacingRight=4;overflow=hidden;rotatable=0;points=[[0,0.5],[1,0.5]];portConstraint=eastwest;fontSize=12;whiteSpace=wrap;html=1;" vertex="1" parent="9gAK7bSFTGWXaGKxGBkw-13">
          <mxGeometry y="218" width="160" height="34" as="geometry" />
        </mxCell>
        <mxCell id="9gAK7bSFTGWXaGKxGBkw-21" value="home_phone" style="text;strokeColor=none;fillColor=none;spacingLeft=4;spacingRight=4;overflow=hidden;rotatable=0;points=[[0,0.5],[1,0.5]];portConstraint=eastwest;fontSize=12;whiteSpace=wrap;html=1;" vertex="1" parent="9gAK7bSFTGWXaGKxGBkw-13">
          <mxGeometry y="252" width="160" height="34" as="geometry" />
        </mxCell>
        <mxCell id="9gAK7bSFTGWXaGKxGBkw-22" value="mobile_phone" style="text;strokeColor=none;fillColor=none;spacingLeft=4;spacingRight=4;overflow=hidden;rotatable=0;points=[[0,0.5],[1,0.5]];portConstraint=eastwest;fontSize=12;whiteSpace=wrap;html=1;" vertex="1" parent="9gAK7bSFTGWXaGKxGBkw-13">
          <mxGeometry y="286" width="160" height="34" as="geometry" />
        </mxCell>
        <mxCell id="9gAK7bSFTGWXaGKxGBkw-23" value="fax_number" style="text;strokeColor=none;fillColor=none;spacingLeft=4;spacingRight=4;overflow=hidden;rotatable=0;points=[[0,0.5],[1,0.5]];portConstraint=eastwest;fontSize=12;whiteSpace=wrap;html=1;" vertex="1" parent="9gAK7bSFTGWXaGKxGBkw-13">
          <mxGeometry y="320" width="160" height="34" as="geometry" />
        </mxCell>
        <mxCell id="9gAK7bSFTGWXaGKxGBkw-24" value="address" style="text;strokeColor=none;fillColor=none;spacingLeft=4;spacingRight=4;overflow=hidden;rotatable=0;points=[[0,0.5],[1,0.5]];portConstraint=eastwest;fontSize=12;whiteSpace=wrap;html=1;" vertex="1" parent="9gAK7bSFTGWXaGKxGBkw-13">
          <mxGeometry y="354" width="160" height="34" as="geometry" />
        </mxCell>
        <mxCell id="9gAK7bSFTGWXaGKxGBkw-25" value="city" style="text;strokeColor=none;fillColor=none;spacingLeft=4;spacingRight=4;overflow=hidden;rotatable=0;points=[[0,0.5],[1,0.5]];portConstraint=eastwest;fontSize=12;whiteSpace=wrap;html=1;" vertex="1" parent="9gAK7bSFTGWXaGKxGBkw-13">
          <mxGeometry y="388" width="160" height="34" as="geometry" />
        </mxCell>
        <mxCell id="9gAK7bSFTGWXaGKxGBkw-26" value="state_province" style="text;strokeColor=none;fillColor=none;spacingLeft=4;spacingRight=4;overflow=hidden;rotatable=0;points=[[0,0.5],[1,0.5]];portConstraint=eastwest;fontSize=12;whiteSpace=wrap;html=1;" vertex="1" parent="9gAK7bSFTGWXaGKxGBkw-13">
          <mxGeometry y="422" width="160" height="34" as="geometry" />
        </mxCell>
        <mxCell id="9gAK7bSFTGWXaGKxGBkw-27" value="zip_postal_code" style="text;strokeColor=none;fillColor=none;spacingLeft=4;spacingRight=4;overflow=hidden;rotatable=0;points=[[0,0.5],[1,0.5]];portConstraint=eastwest;fontSize=12;whiteSpace=wrap;html=1;" vertex="1" parent="9gAK7bSFTGWXaGKxGBkw-13">
          <mxGeometry y="456" width="160" height="34" as="geometry" />
        </mxCell>
        <mxCell id="9gAK7bSFTGWXaGKxGBkw-28" value="country_region" style="text;strokeColor=none;fillColor=none;spacingLeft=4;spacingRight=4;overflow=hidden;rotatable=0;points=[[0,0.5],[1,0.5]];portConstraint=eastwest;fontSize=12;whiteSpace=wrap;html=1;" vertex="1" parent="9gAK7bSFTGWXaGKxGBkw-13">
          <mxGeometry y="490" width="160" height="34" as="geometry" />
        </mxCell>
        <mxCell id="9gAK7bSFTGWXaGKxGBkw-29" value="web_page" style="text;strokeColor=none;fillColor=none;spacingLeft=4;spacingRight=4;overflow=hidden;rotatable=0;points=[[0,0.5],[1,0.5]];portConstraint=eastwest;fontSize=12;whiteSpace=wrap;html=1;" vertex="1" parent="9gAK7bSFTGWXaGKxGBkw-13">
          <mxGeometry y="524" width="160" height="34" as="geometry" />
        </mxCell>
        <mxCell id="9gAK7bSFTGWXaGKxGBkw-30" value="notes" style="text;strokeColor=none;fillColor=none;spacingLeft=4;spacingRight=4;overflow=hidden;rotatable=0;points=[[0,0.5],[1,0.5]];portConstraint=eastwest;fontSize=12;whiteSpace=wrap;html=1;" vertex="1" parent="9gAK7bSFTGWXaGKxGBkw-13">
          <mxGeometry y="558" width="160" height="34" as="geometry" />
        </mxCell>
        <mxCell id="9gAK7bSFTGWXaGKxGBkw-31" value="attachments" style="text;strokeColor=none;fillColor=none;spacingLeft=4;spacingRight=4;overflow=hidden;rotatable=0;points=[[0,0.5],[1,0.5]];portConstraint=eastwest;fontSize=12;whiteSpace=wrap;html=1;" vertex="1" parent="9gAK7bSFTGWXaGKxGBkw-13">
          <mxGeometry y="592" width="160" height="34" as="geometry" />
        </mxCell>
      </root>
    </mxGraphModel>
  </diagram>
</mxfile>
